Coordinates
version=1
nRows=14
nColumns=40
inDegrees=yes

Units are S.I. units (second, meters, Newtons, ...)
If the header above contains a line with 'inDegrees', this indicates whether rotational values are in degrees (yes) or radians (no).

endheader
time	pelvis_tilt	pelvis_list	pelvis_rotation	pelvis_tx	pelvis_ty	pelvis_tz	hip_flexion_r	hip_adduction_r	hip_rotation_r	knee_angle_r	knee_angle_r_beta	ankle_angle_r	subtalar_angle_r	mtp_angle_r	hip_flexion_l	hip_adduction_l	hip_rotation_l	knee_angle_l	knee_angle_l_beta	ankle_angle_l	subtalar_angle_l	mtp_angle_l	lumbar_extension	lumbar_bending	lumbar_rotation	arm_flex_r	arm_add_r	arm_rot_r	elbow_flex_r	pro_sup_r	wrist_flex_r	wrist_dev_r	arm_flex_l	arm_add_l	arm_rot_l	elbow_flex_l	pro_sup_l	wrist_flex_l	wrist_dev_l
      4.44000000	    -17.24940687	      2.08018481	      8.20683808	     -0.28250880	      0.92056340	     -0.98493091	     26.00982096	     -7.87134874	     -4.83063666	     88.35752138	      1.54212967	     -7.64738339	      0.00000000	      0.00000000	     47.37255599	      7.06010307	     -0.58515412	     58.59353188	      1.02265005	     17.36489603	      0.00000000	      0.00000000	      0.76637405	    -10.10562763	     -9.97343100	     89.91742471	     -8.19516541	     45.16763809	     52.91013403	     84.57047691	      0.00000000	      0.00000000	     89.94560571	    -16.06931881	     42.12331179	     58.07830656	     82.13096041	      0.00000000	      0.00000000
      4.44500000	    -17.19760845	      2.04093253	      8.25415891	     -0.28261354	      0.92146943	     -0.98493332	     26.10289362	     -7.82740259	     -4.83924236	     88.44275917	      1.54361735	     -7.63358343	      0.00000000	      0.00000000	     47.25525873	      7.00921849	     -0.60309745	     58.45543123	      1.02023974	     17.29110219	      0.00000000	      0.00000000	      0.73402709	    -10.08014285	    -10.04258580	     89.91784250	     -8.22175720	     45.15034959	     52.93122820	     84.56922549	      0.00000000	      0.00000000	     89.94528018	    -16.02538754	     42.16830727	     58.07537628	     82.13683168	      0.00000000	      0.00000000
      4.45000000	    -17.14417432	      2.00725190	      8.29165289	     -0.28268299	      0.92250159	     -0.98494976	     26.19370439	     -7.79446891	     -4.85498557	     88.51953711	      1.54495737	     -7.56949842	      0.00000000	      0.00000000	     47.07015505	      6.96380455	     -0.62104104	     58.16744119	      1.01521337	     17.13653284	      0.00000000	      0.00000000	      0.71507523	    -10.04414805	    -10.07797913	     89.91744755	     -8.26276350	     45.19129646	     52.93835132	     84.56999425	      0.00000000	      0.00000000	     89.94514690	    -16.00560476	     42.20818160	     58.02357572	     82.14155643	      0.00000000	      0.00000000
      4.45500000	    -17.07804141	      1.98558769	      8.30282878	     -0.28274564	      0.92355435	     -0.98494452	     26.28419470	     -7.75049815	     -4.82812390	     88.56930867	      1.54582605	     -7.52956930	      0.00000000	      0.00000000	     46.87985475	      6.92494643	     -0.61057564	     57.89791842	      1.01050931	     16.98131791	      0.00000000	      0.00000000	      0.67915835	    -10.02913353	    -10.09883628	     89.91743165	     -8.30063598	     45.22443080	     52.96231367	     84.57068740	      0.00000000	      0.00000000	     89.94499597	    -15.97276156	     42.21136573	     58.01941918	     82.14634100	      0.00000000	      0.00000000
      4.46000000	    -17.01648191	      1.94949652	      8.32431645	     -0.28284911	      0.92459171	     -0.98498045	     26.35989480	     -7.71620643	     -4.80867011	     88.64148288	      1.54708573	     -7.48214810	      0.00000000	      0.00000000	     46.71174415	      6.87940318	     -0.60981202	     57.65754923	      1.00631407	     16.82795309	      0.00000000	      0.00000000	      0.64890197	     -9.98166737	    -10.13656374	     89.91732018	     -8.32284317	     45.26838980	     52.96583809	     84.57074378	      0.00000000	      0.00000000	     89.94526972	    -15.99291511	     42.26734416	     57.99737003	     82.15273214	      0.00000000	      0.00000000
      4.46500000	    -16.94890838	      1.93024887	      8.33389107	     -0.28284872	      0.92569226	     -0.98497710	     26.42543721	     -7.66902857	     -4.78289886	     88.67399103	      1.54765310	     -7.39225625	      0.00000000	      0.00000000	     46.50443958	      6.83186790	     -0.62241322	     57.36158763	      1.00114857	     16.65176273	      0.00000000	      0.00000000	      0.61473212	     -9.95223796	    -10.18403168	     89.91731421	     -8.31431323	     45.35881192	     52.97287388	     84.57424283	      0.00000000	      0.00000000	     89.94522144	    -16.06200483	     42.32627044	     58.01761655	     82.15876431	      0.00000000	      0.00000000
      4.47000000	    -16.83465336	      1.93593810	      8.31203891	     -0.28286776	      0.92677678	     -0.98497108	     26.45693972	     -7.63739389	     -4.70467618	     88.72050537	      1.54846493	     -7.25808522	      0.00000000	      0.00000000	     46.26113186	      6.78413469	     -0.66829740	     57.09855330	      0.99655775	     16.46049930	      0.00000000	      0.00000000	      0.52357586	     -9.94148491	    -10.17314610	     89.91771587	     -8.33776135	     45.42376750	     52.99152593	     84.57556484	      0.00000000	      0.00000000	     89.94484130	    -16.05320635	     42.34090333	     58.04903263	     82.16238549	      0.00000000	      0.00000000
      4.47500000	    -16.75573233	      1.92707590	      8.34610661	     -0.28295517	      0.92778958	     -0.98495810	     26.53919122	     -7.68540646	     -4.79425887	     88.80802048	      1.54999236	     -7.19477517	      0.00000000	      0.00000000	     46.07951830	      6.75317966	     -0.70330002	     56.87774782	      0.99270397	     16.33136464	      0.00000000	      0.00000000	      0.47895894	     -9.94205384	    -10.21847274	     89.91752197	     -8.36850011	     45.46852869	     52.99206855	     84.57562990	      0.00000000	      0.00000000	     89.94477310	    -16.04341644	     42.35565207	     58.03172025	     82.16413262	      0.00000000	      0.00000000
      4.48000000	    -16.68816362	      1.89096976	      8.37246719	     -0.28300417	      0.92888018	     -0.98500193	     26.61988379	     -7.59103315	     -4.71395371	     88.87124847	      1.55109590	     -7.12987788	      0.00000000	      0.00000000	     45.89863944	      6.70424607	     -0.71894640	     56.63510281	      0.98846902	     16.19477037	      0.00000000	      0.00000000	      0.43537707	     -9.90602809	    -10.30282540	     89.91727586	     -8.38223948	     45.50975444	     53.00781447	     84.57605850	      0.00000000	      0.00000000	     89.94500653	    -16.10106858	     42.40062103	     58.04040467	     82.16711913	      0.00000000	      0.00000000
      4.48500000	    -16.62589987	      1.88531007	      8.36052074	     -0.28303906	      0.92990821	     -0.98497629	     26.70051641	     -7.57740626	     -4.66677135	     88.89052912	      1.55143241	     -7.01677558	      0.00000000	      0.00000000	     45.69959506	      6.66245414	     -0.73478448	     56.35082075	      0.98350736	     16.01948196	      0.00000000	      0.00000000	      0.40611526	     -9.89622858	    -10.29605910	     89.91756921	     -8.38282810	     45.56459874	     53.01591490	     84.57570975	      0.00000000	      0.00000000	     89.94436945	    -16.07552900	     42.41219022	     58.02644645	     82.16822794	      0.00000000	      0.00000000
      4.49000000	    -16.57148797	      1.94361049	      8.38537644	     -0.28279083	      0.93110019	     -0.98515310	     26.74428173	     -7.68638383	     -4.66402868	     88.90871875	      1.55174988	     -6.84781340	      0.00000000	      0.00000000	     45.47274215	      6.70132706	     -0.79042346	     56.03229253	      0.97794799	     15.79425851	      0.00000000	      0.00000000	      0.33755202	     -9.90802588	    -10.93159920	     89.91741990	     -7.66448464	     45.59386049	     52.71941552	     84.55158376	      0.00000000	      0.00000000	     89.94595093	    -16.36592716	     44.60764381	     53.96458000	     83.58329812	      0.00000000	      0.00000000
      4.49500000	    -16.40101111	      2.13450892	      8.32571283	     -0.28274087	      0.93230319	     -0.98514155	     26.71749146	     -7.85047271	     -4.51505248	     89.00509810	      1.55343201	     -6.65877118	      0.00000000	      0.00000000	     45.11067704	      6.75147913	     -1.05689556	     55.69798462	      0.97211322	     15.53611656	      0.00000000	      0.00000000	      0.17142500	    -10.09713157	    -10.88896005	     89.91764149	     -7.69255884	     45.62782246	     52.74769908	     84.50859832	      0.00000000	      0.00000000	     89.94563060	    -16.29230831	     44.13320451	     53.84153517	     86.52996137	      0.00000000	      0.00000000
      4.50000000	    -16.38732170	      2.02803624	      8.33061697	     -0.28287671	      0.93322681	     -0.98509364	     26.90683540	     -7.76412887	     -4.53742447	     89.12041307	      1.55544464	     -6.63101289	      0.00000000	      0.00000000	     45.01312751	      6.63323105	     -1.03430334	     55.49728456	      0.96861034	     15.49722683	      0.00000000	      0.00000000	      0.19610899	     -9.99085406	    -10.91455063	     89.91743835	     -7.70012441	     45.58662037	     52.79148243	     84.50657057	      0.00000000	      0.00000000	     89.94537815	    -16.29877631	     44.20657153	     53.84303132	     86.58014965	      0.00000000	      0.00000000
      4.50500000	    -16.36896656	      1.90717833	      8.37111235	     -0.28305112	      0.93426510	     -0.98513025	     27.05386971	     -7.64167251	     -4.55098934	     89.13253396	      1.55565619	     -6.55234788	      0.00000000	      0.00000000	     44.89345350	      6.53281094	     -0.98907264	     55.23125667	      0.96396728	     15.38066816	      0.00000000	      0.00000000	      0.21777086	     -9.85922066	    -10.97049135	     89.91685707	     -7.71992574	     45.61356325	     52.81966237	     84.50757687	      0.00000000	      0.00000000	     89.94525363	    -16.32009082	     44.28443334	     53.85230308	     86.64015986	      0.00000000	      0.00000000
